<svg width="37" height="23" viewBox="0 0 37 23" fill="none" xmlns="http://www.w3.org/2000/svg">
<path fill-rule="evenodd" clip-rule="evenodd" d="M30.3462 0.0163879H6.65386C5.27912 0.0163879 3.91303 0.414398 2.81555 1.20035C1.72731 1.9797 0.692322 3.32954 0.692322 5.13729V17.8627C0.692322 19.6704 1.72731 21.0203 2.81555 21.7996C3.91303 22.5856 5.27912 22.9836 6.65386 22.9836H30.3462C31.7209 22.9836 33.087 22.5856 34.1845 21.7996C35.2727 21.0203 36.3077 19.6704 36.3077 17.8627V5.13729C36.3077 3.32954 35.2727 1.9797 34.1845 1.20035C33.087 0.414398 31.7209 0.0163879 30.3462 0.0163879ZM7.46322 3.01639L11.2906 5.13861H5.10409L18.5 12.5664L31.8959 5.13861H25.7094L29.5368 3.01639H7.46322ZM33.3077 7.7861L19.9548 15.1901C19.0498 15.6918 17.9502 15.6918 17.0452 15.1901L3.69232 7.78612V17.8627C3.69232 19.0292 5.02501 19.9836 6.65386 19.9836H30.3462C31.975 19.9836 33.3077 19.0292 33.3077 17.8627V7.7861Z" fill="white"/>
</svg>
